<svg width="17" height="17" viewBox="0 0 17 17" fill="none" xmlns="http://www.w3.org/2000/svg">
<path d="M5.3 8.5H8.5M5.3 8.5C2.65111 8.5 0.5 10.6422 0.5 13.3M5.3 8.5V5.3M5.3 8.5C2.65111 8.5 0.5 6.34889 0.5 3.7V0.5H3.7M8.5 8.5V11.7M8.5 8.5V5.3M8.5 8.5H11.7M8.5 11.7H5.3M8.5 11.7C8.5 14.3489 6.34889 16.5 3.7 16.5H0.5V13.3M8.5 11.7C8.5 14.3489 10.6511 16.5 13.3 16.5M5.3 11.7C4.42 11.7 3.7 12.42 3.7 13.3M5.3 11.7C5.3 12.58 4.58 13.3 3.7 13.3M3.7 13.3H0.5M8.5 5.3C8.5 2.64222 6.34889 0.5 3.7 0.5M8.5 5.3H11.7M8.5 5.3C8.5 2.64222 10.6511 0.5 13.3 0.5H16.5V3.7M5.3 5.3C5.3 4.42 4.58 3.7 3.7 3.7M5.3 5.3C4.42 5.3 3.7 4.58 3.7 3.7M3.7 3.7V0.5M11.7 8.5C14.3489 8.5 16.5 6.34889 16.5 3.7M11.7 8.5V11.7M11.7 8.5C14.3489 8.5 16.5 10.6422 16.5 13.3V16.5H13.3M11.7 5.3C12.58 5.3 13.3 4.58 13.3 3.7M11.7 5.3C11.7 4.42 12.42 3.7 13.3 3.7M13.3 3.7H16.5M11.7 11.7C11.7 12.58 12.42 13.3 13.3 13.3M11.7 11.7C12.58 11.7 13.3 12.42 13.3 13.3M13.3 13.3V16.5" stroke="#FA9F42" stroke-miterlimit="10"/>
</svg>
