<svg width="16" height="16" viewBox="0 0 16 16" fill="none" xmlns="http://www.w3.org/2000/svg">
<path d="M15.5 15.5H11.1924C11.4257 13.2299 13.2299 11.4247 15.5 11.1914V15.5ZM5.33301 11.167C7.83354 11.167 9.8904 13.0656 10.1406 15.5H0.526367C0.776593 13.0657 2.83264 11.1672 5.33301 11.167ZM5.33301 0.5C7.91908 0.5 10.0309 2.53101 10.1602 5.08496L10.167 5.33301L10.1602 5.58203C10.0349 8.05345 8.05345 10.0349 5.58203 10.1602L5.33301 10.167L5.08496 10.1602C2.53101 10.0309 0.5 7.91908 0.5 5.33301C0.500176 2.66389 2.66389 0.500176 5.33301 0.5ZM15.5 10.1406C13.1468 9.89875 11.2938 7.96909 11.1729 5.58203L11.167 5.33301C11.1672 2.8326 13.0657 0.775571 15.5 0.525391V10.1406Z" stroke="#FA9F42"/>
</svg>
