<svg width="19" height="17" viewBox="0 0 19 17" fill="none" xmlns="http://www.w3.org/2000/svg">
<path d="M18.5 7.96918C18.5 12.6801 14.4722 16.5 9.505 16.5C4.53776 16.5 0.509992 12.6801 0.509992 7.96918M0.5 7.96919C0.5 3.84596 4.02803 0.5 8.37562 0.5C12.7232 0.5 16.2512 3.84596 16.2512 7.96918C16.2512 11.5047 13.2329 14.3673 9.505 14.3673C5.77707 14.3673 2.75874 11.5047 2.75874 7.96918C2.75874 5.02131 5.27734 2.64219 8.37562 2.64219C11.4839 2.64219 13.9925 5.03079 13.9925 7.96918M14.0025 7.96918C14.0025 10.3294 11.9936 12.2346 9.505 12.2346C7.01638 12.2346 5.00749 10.3294 5.00749 7.96918C5.00749 6.20615 6.51666 4.76541 8.38562 4.76541C10.2446 4.76541 11.7637 6.19667 11.7637 7.96918M11.7537 7.96918C11.7537 9.14454 10.7443 10.1019 9.505 10.1019C8.26568 10.1019 7.25624 9.14454 7.25624 7.96918C7.25624 7.38151 7.75596 6.9076 8.37562 6.9076C8.99527 6.9076 9.495 7.38151 9.495 7.96918" stroke="#FA9F42" stroke-miterlimit="10"/>
</svg>
